<svg id="Capa_1" enable-background="new 0 0 512 512" height="512" viewBox="0 0 512 512" width="512" xmlns="http://www.w3.org/2000/svg"><g><path d="m121.78 76.888 28.957 428.38c.256 3.791 3.311 6.732 6.993 6.732h196.54c3.682 0 6.737-2.941 6.993-6.732l28.957-428.38z" fill="#f3f0f3"/><path d="m390.222 76.889-28.955 428.375c-.26 3.799-3.32 6.734-6.994 6.734h-22.481c3.684 0 6.744-2.935 6.994-6.734l28.955-428.375z" fill="#e2dee2"/><path d="m256 185.261h-125.529c-4.699 0-8.413 3.983-8.086 8.67l14.113 202.154c.297 4.247 3.829 7.541 8.086 7.541h111.416 111.415c4.258 0 7.79-3.294 8.086-7.541l14.113-202.154c.327-4.688-3.387-8.67-8.086-8.67z" fill="#cbc4cc"/><path d="m389.619 193.928-14.113 202.156c-.302 4.247-3.83 7.546-8.087 7.546h-21.805c4.257 0 7.785-3.299 8.087-7.546l14.113-202.156c.323-4.684-3.393-8.67-8.087-8.67h21.805c4.694 0 8.409 3.986 8.087 8.67z" fill="#b5adb6"/><circle cx="256" cy="294.444" fill="#00c27a" r="51.053"/><path d="m307.052 294.449c0 28.195-22.856 51.052-51.052 51.052-13.749 0-26.239-5.433-35.408-14.28 4.954 1.613 10.242 2.477 15.737 2.477 28.195 0 51.052-22.856 51.052-51.052 0-14.457-6.005-27.508-15.664-36.782 20.503 6.619 35.335 25.874 35.335 48.585z" fill="#08b865"/><path d="m351.727 0h-191.454c-10.299 0-19.363 6.796-22.248 16.683l-5.307 18.183h246.564l-5.307-18.183c-2.886-9.887-11.949-16.683-22.248-16.683z" fill="#cbc4cc"/><path d="m379.284 34.87h-22.45l-5.298-18.183c-2.893-9.888-11.959-16.684-22.252-16.684h22.44c10.304 0 19.369 6.796 22.252 16.684z" fill="#b5adb6"/><path d="m391.879 32.51h-271.758c-6.579 0-12.677 3.476-16.001 9.154-4.077 6.964-6.958 15.379-8.886 22.479-2.068 7.613 3.686 15.101 11.575 15.101h298.384c7.888 0 13.642-7.489 11.575-15.101-1.928-7.1-4.809-15.515-8.886-22.479-3.326-5.678-9.424-9.154-16.003-9.154z" fill="#00c27a"/><path d="m405.189 79.245h-22.867c7.889 0 13.645-7.494 11.574-15.102-1.925-7.098-4.809-15.518-8.878-22.482-3.331-5.672-9.43-9.148-16.008-9.148h22.866c6.578 0 12.677 3.476 16.008 9.148 4.07 6.963 6.953 15.383 8.878 22.482 2.072 7.608-3.684 15.102-11.573 15.102z" fill="#08b865"/></g></svg>