<svg id="Capa_1" enable-background="new 0 0 512 512" height="512" viewBox="0 0 512 512" width="512" xmlns="http://www.w3.org/2000/svg"><g><path d="m321.964 326.203c.695-.333.218-1.781.91-2.125 19.559-9.721 36.628-22.632 51.934-41.104 22.235-26.835 28.913-66.847 28.305-105.344-.018-1.164 1.216-4.534 1.186-5.69-.383-14.931-1.687-29.223-3.309-41.75-4.422-34.169-22.861-97.258-33.125-130.19h-223.731c-10.265 32.932-28.704 96.021-33.126 130.19-1.27 9.81-2.345 20.703-2.935 32.137-.039.746 1.194 3.23 1.16 3.981-1.885 41.21 2.729 86.299 27.074 115.682 15.534 18.747 32.778 32.11 52.672 41.842.401.196.653 2.178 1.056 2.371 26.815 12.833 44.019 39.761 44.019 69.489v9.948c0 37.351-25.8 70.12-62.33 77.911-1.032.22-2.08.432-3.146.634 0 0-27.816 3.974-33.114 27.816h241.071c-5.298-23.842-33.114-27.816-33.114-27.816-1.066-.203-2.114-.414-3.146-.634-36.53-7.79-62.33-40.56-62.33-77.911v-9.948c0-29.728 17.205-56.656 44.019-69.489z" fill="#c8effe"/><path d="m277.944 395.694v9.943c0 37.354 25.805 70.117 62.335 77.909 1.029.226 2.079.432 3.139.638 0 0 27.812 3.973 33.113 27.812h-20.772c-3.448-14.493-24.734-14.884-36.253-17.344-36.531-7.792-62.335-51.662-62.335-89.016v-9.943c0-29.727 17.21-65.949 44.024-78.784 20.35-9.748 39.186-24.199 55.038-43.324 31.58-38.116 29.891-97.796 23.983-143.395-4.416-34.173-22.861-97.26-33.123-130.188h20.772c10.262 32.928 28.708 96.015 33.123 130.188 5.898 45.599 7.596 114.574-23.983 152.689-15.852 19.125-34.688 33.576-55.038 43.324-26.812 12.837-44.023 39.764-44.023 69.491z" fill="#99e6fc"/><path d="m377.006 282.881c-16.068 19.392-35.213 33.988-55.902 43.736-.185.082-.36.165-.546.247-.679.319-1.376.592-2.038.926-22.411 11.302-44.769 11.326-68.326 11.302-17.08-.018-34.708-3.52-50.982-8.862-.021 0-.041-.01-.062-.021-23.849-9.583-45.97-25.383-64.158-47.328-24.786-29.912-29.068-78.846-26.917-120.554 38.394-1.781 76.726 13.216 113.215 27.153 42.048 16.068 88.151 31.168 131.238 18.157 20.432-6.176 38.414-19.063 51.734-35.697.01-.01.021-.02.021-.031 1.03 39.423-4.364 83.324-27.277 110.972z" fill="#e94444"/><path d="m403.703 201.75c-.89 12.774-2.699 25.479-5.917 37.89-.97 3.741-2.078 7.403-3.333 11.053-3.973 11.562-9.597 22.704-17.447 32.186-3.829 4.626-7.904 9.052-12.2 13.248-10.593 10.347-22.313 19.06-35.282 26.196-.617.34-1.245.679-1.873 1.009-3.018 1.583-6.133 2.946-9.13 4.457-13.988 7.061-27.956 9.717-42.212 10.705 6.814-9.305 15.224-16.963 24.889-21.585 20.35-9.748 39.186-24.199 55.038-43.324 18.384-22.192 25.496-51.692 27.061-81.481 7.823-5.744 14.884-12.568 20.967-20.164.01-.01.021-.02.021-.031.01.041.01.082 0 .124.031 1.122.062 2.254.072 3.387.021.525.021 1.06.021 1.585 0 5.018.014 10.029-.166 15.045-.118 3.235-.284 6.47-.509 9.7z" fill="#d83131"/></g></svg>