<svg id="Capa_1" enable-background="new 0 0 512 512" height="512" viewBox="0 0 512 512" width="512" xmlns="http://www.w3.org/2000/svg"><g><path d="m460.424 511.996-40.89-20.605-40.891 20.605-40.884-20.605-40.886 20.605-40.885-20.605-40.883 20.605-40.879-20.605-40.883 20.605-40.884-20.605-40.883 20.605v-53.322h408.848z" fill="#cbc4cc"/><path d="m460.424 463.33v48.67l-21.944-11.055v-37.615z" fill="#b5adb6"/><path d="m460.424.004-40.89 20.605-40.891-20.605-40.884 20.605-40.886-20.605-40.885 20.605-40.883-20.605-40.879 20.605-40.883-20.605-40.884 20.605-40.883-20.605v51.959h408.848z" fill="#cbc4cc"/><path d="m460.424 0v48.67h-21.944v-37.615z" fill="#b5adb6"/><path d="m431.419 119.648c0-7.692 2.661-15.147 7.532-21.101l13.94-17.038c4.871-5.953 7.532-13.408 7.532-21.1v-11.739h-408.847v11.739c0 7.692 2.661 15.147 7.532 21.101l13.94 17.038c4.871 5.953 7.532 13.408 7.532 21.1v58.909l1.722 3.622v73.821l-.077 73.261-1.645 3.579v59.513c0 7.692-2.661 15.147-7.532 21.1l-13.94 17.038c-4.871 5.953-7.532 13.408-7.532 21.1v11.739h408.848v-11.739c0-7.692-2.661-15.147-7.532-21.101l-13.94-17.038c-4.871-5.953-7.532-13.408-7.532-21.1v-59.512l-1.828-4.702.055-72.138v-74.135l1.772-3.308z" fill="#e94444"/><path d="m431.423 392.352c0 7.696 2.658 15.145 7.531 21.1l13.939 17.04c4.873 5.955 7.531 13.404 7.531 21.1v11.735h-21.924v-11.735c0-7.696-2.668-15.145-7.541-21.1l-13.939-17.04c-4.863-5.955-7.531-13.404-7.531-21.1v-272.701c0-7.696 2.668-15.155 7.531-21.1l13.939-17.041c4.873-5.955 7.541-13.414 7.541-21.1v-11.744h21.924v11.745c0 7.686-2.658 15.145-7.531 21.1l-13.939 17.041c-4.873 5.945-7.531 13.404-7.531 21.1z" fill="#d83131"/><path d="m80.58 178.556h350.839v154.284h-350.839z" fill="#f3f0f3"/><path d="m409.488 178.556h21.931v154.284h-21.931z" fill="#e2dee2"/><g fill="#cbc4cc"><path d="m260.509 228.787c-.018-.047-.036-.096-.056-.143-.98-2.379-3.275-3.916-5.848-3.916-.003 0-.006 0-.008 0-2.577.003-4.872 1.546-5.847 3.931-.016.038-.031.077-.046.117l-19.447 51.06c-1.013 2.658.321 5.634 2.98 6.647 2.658 1.009 5.635-.322 6.647-2.981l3.58-9.399h24.134l3.542 9.385c.779 2.063 2.739 3.334 4.82 3.333.604 0 1.219-.107 1.818-.333 2.661-1.004 4.005-3.976 3-6.638zm-14.12 35.013 8.198-21.525 8.123 21.525z"/><path d="m211.589 224.575c-2.845.028-5.129 2.356-5.102 5.202l.349 36.031-26.872-38.911c-1.281-1.855-3.619-2.662-5.772-1.991-2.152.671-3.618 2.663-3.618 4.918v51.846c0 2.845 2.307 5.151 5.151 5.151s5.151-2.306 5.151-5.151v-35.321l25.666 37.166c1.567 2.264 4.16 3.234 6.605 2.468 2.507-.783 4.127-3.163 4.127-6.114l-.485-50.193c-.027-2.845-2.313-5.122-5.2-5.101z"/><path d="m394.477 277.962-24.103-23.255 22.174-20.381c2.095-1.926 2.232-5.185.307-7.279-1.927-2.096-5.185-2.232-7.279-.307l-19.222 17.668v-14.528c0-2.845-2.306-5.151-5.151-5.151s-5.151 2.306-5.151 5.151v51.789c0 2.845 2.306 5.151 5.151 5.151s5.151-2.306 5.151-5.151v-16.524l20.97 20.232c1 .964 2.289 1.444 3.576 1.444 1.35 0 2.697-.527 3.709-1.575 1.974-2.047 1.915-5.308-.132-7.284z"/><path d="m331.255 271.048c-.492.587-1.025 1.136-1.582 1.633-2.859 2.547-6.489 3.837-10.786 3.837-11.438 0-20.743-9.306-20.743-20.743s9.306-20.743 20.743-20.743c4.157 0 8.167 1.223 11.594 3.539 2.355 1.594 5.56.973 7.152-1.384 1.593-2.357.973-5.559-1.384-7.152-5.136-3.471-11.139-5.305-17.361-5.305-17.119 0-31.046 13.927-31.046 31.046s13.927 31.046 31.046 31.046c6.803 0 12.903-2.23 17.639-6.448.928-.827 1.809-1.737 2.62-2.702 1.829-2.179 1.544-5.428-.635-7.257-2.179-1.831-5.428-1.547-7.257.633z"/><path d="m145.426 251.349c-6.576-2.425-12.682-5.071-14.321-5.791-1.461-1.096-2.168-2.829-1.899-4.704.349-2.427 2.235-4.382 5.047-5.229 8.031-2.417 15.34 3.433 15.473 3.54 2.178 1.812 5.411 1.524 7.237-.647 1.831-2.177 1.549-5.427-.629-7.257-.467-.392-11.58-9.563-25.052-5.499-6.651 2.003-11.354 7.225-12.273 13.628-1.976 13.758 12.87 17.945 22.853 21.627 5.459 2.013 8.242 5.121 7.634 8.524-.613 3.431-4.651 6.978-10.348 6.978-5.515 0-10.834-2.238-14.23-5.985-1.91-2.108-5.167-2.269-7.276-.358-2.108 1.91-2.269 5.167-.358 7.276 5.316 5.867 13.49 9.37 21.865 9.37 10.107 0 18.916-6.65 20.491-15.47 1.193-6.695-1.913-15.465-14.214-20.003z"/></g></g></svg>